<svg xmlns="http://www.w3.org/2000/svg" viewBox="0 0 455 575">
    <path d="M353,163.47c20.19-.53,44.94-2.8,50,12,9,11.32-8.07,35.8-9,47,19,2.05,52.6,13,42,38-5,11.69-17.77,17.91-22,30,11.14,3.63,41.39,23.91,33,43-5,11.3-22.88,20.59-33,27,8.85,17.3,27.24,21.55,21,49-7.69,4.76-14,10.69-24,14-7.31,2.41-15.92.23-17,9,7.9,8.67,12.26,29.84,9,44-3.11,2.17-5.62,6.28-9,8-9,4.58-28.56,2.07-41,2,.49,19.53,4.51,44.7-11,50-10.18,8.19-39.1-6.79-47-10-3.72,18.24-12,43.52-35,43-3.26-2.64-7.56-3.5-11-6-8-5.84-13.08-18.41-23-22-6.37,9.8-31,36.38-48,25-10.81-7.24-14.35-27.7-20-40-12.87,5.47-47,23.58-55,1-6.39-8.26-2.17-28.46-2-41-20.69.57-48,3.29-51-14-7.06-10.41,8.26-33.42,10-44-13.1-5.45-39.14-7.67-42-23-9.48-13,17-37,22-45-13.76-8.36-35.21-17.78-35-40,5-5.18,7.72-12.11,13-17,6.07-5.63,16.46-6.73,22-15-6.62-4.91-30.52-32-22-44,3.81-13.3,27.24-20.06,42-22-1-12.23-17.37-33.25-10-45,4.53-17,29.3-14.4,51-14-.71-26.65-4.55-62.14,31-51,9,2.83,17.15,8.48,27,11,1.85-14.66,11.08-28.84,18-39-8.8-10-10.06-33.31-18-45-5.74-8.45-16.77-9.88-18-23,.21-2.14.38-3.31,2-5,27.65-17.82,73.53,4.93,87,23,4.19,5.62,6.25,13.83,11,19a.72.72,0,0,1,0-1c6.14-4.86,30.51-25.06,40-21,5.63,2.5,6.7,3.79,10,7-.18,17.82-12.37,15.27-23,22-10.1,6.39-21.54,19.24-25,32h1a25.88,25.88,0,0,1,24-12c10.42,2.08,13.71,6.52,19,19,3.08,7.26,3.39,20.49,10,24,9.54-7.6,29.33-14,45-11,4.5,1.5,8.13,6,10,11C356.26,134.73,353.11,149.52,353,163.47Z M180,30.47c6.76,12.54,12,29.48,18,43,1.87,4.21,3.48,9.48,7,12a9.13,9.13,0,0,0,8,0,11.08,11.08,0,0,0,3-2c3.6-3.9,4.46-17.48,2-24C212.91,46,195.14,33.79,180,30.47Z"/>
</svg>
